<?xml version="1.0" encoding="utf-8"?>
<!-- Svg Vector Icons : http://www.onlinewebfonts.com/icon -->
<!DOCTYPE svg PUBLIC "-//W3C//DTD SVG 1.1//EN" "http://www.w3.org/Graphics/SVG/1.1/DTD/svg11.dtd">
<svg version="1.1" xmlns="http://www.w3.org/2000/svg" xmlns:xlink="http://www.w3.org/1999/xlink" x="0px" y="0px" viewBox="0 0 1000 1000" enable-background="new 0 0 1000 1000" xml:space="preserve">
<metadata> Svg Vector Icons : http://www.onlinewebfonts.com/icon </metadata>
<g><g transform="translate(0.000000,511.000000) scale(0.100000,-0.100000)"><path d="M2005.1,2538.4c-82.4-44.1-145.6-122.6-166.7-201.2l-19.2-82.4h-364c-358.3,0-362.1,0-408.1-47.9c-63.2-61.3-65.1-164.8-5.7-220.3c40.2-38.3,61.3-38.3,1212.8-38.3h1172.6l40.2-44.1c59.4-63.2,53.7-137.9-13.4-206.9l-55.6-55.6H1938H480l-46-47.9c-47.9-46-65.1-147.5-32.6-193.5c40.2-63.2,95.8-65.1,1343.1-65.1c1222.4,0,1247.3,0,1285.6-38.3c59.4-59.4,51.7-159-21.1-218.4l-59.4-49.8H1869H786.5l-46-47.9c-67.1-65.1-65.1-164.8,1.9-218.4c49.8-40.2,65.1-40.2,1419.7-40.2c927.3,0,1381.4-5.7,1406.3-21.1c55.6-28.7,76.6-99.6,53.6-170.5c-42.1-118.8,30.7-115-1774.2-115c-1737.8-1.9-1678.4,1.9-1726.3-90.1C89.1,266.1,93,216.3,135.1,164.6l36.4-46l1212.8-9.6l1210.9-9.6l36.4-49.8c53.6-70.9,32.6-160.9-47.9-210.8c-55.6-32.6-101.6-36.4-515.4-36.4c-251,0-456-5.7-456-13.4c0-9.6-23-274-49.8-588.2c-69-793.2-88.1-764.5,473.2-774l356.4-7.7l32.6,137.9c143.7,641.9,860.3,1021.2,1421.7,754.9c160.9-74.7,321.9-235.7,400.4-398.5c63.2-128.4,116.9-362.1,101.5-446.4c-5.7-32.6,51.7-34.5,1544.3-34.5h1550l24.9,124.5c36.4,176.3,126.5,346.8,258.7,488.6c195.4,208.8,429.2,325.7,695.5,346.8c525,46,969.5-360.2,969.5-883.3c0-84.3,1.9-86.2,63.2-86.2c143.7,0,274,76.6,318.1,189.7c30.6,72.8,139.9,1373.7,126.4,1486.8c-21.1,174.4-92,274-578.6,802.8c-400.4,436.8-477.1,513.5-574.8,559.5l-111.1,55.6l-588.2,5.7c-442.6,3.8-590.1,11.5-590.1,28.7c0,13.4,13.4,160.9,28.7,329.6c36.4,388.9,36.4,496.2,0,565.2c-63.2,122.6,118.8,115-2791.6,115C2798.3,2559.5,2031.9,2553.8,2005.1,2538.4z M8613.3,1231.8c47.9-24.9,205-180.1,440.7-436.8c201.2-220.3,367.9-408.1,371.7-417.7c7.7-19.2-1793.3-21.1-1804.8-1.9c-3.8,5.8,9.6,193.5,28.7,413.8c19.2,222.3,36.4,421.5,36.4,446.4v44.1l427.3-5.8C8486.8,1268.2,8548.1,1264.3,8613.3,1231.8z"/><path d="M3250.5-816.4c-321.9-84.3-574.8-348.7-641.9-674.4c-65.1-314.2,90.1-638,371.7-776c385.1-189.7,887.1,1.9,1086.4,415.8c55.6,113,65.1,155.2,70.9,312.3c9.6,235.7-32.6,356.4-180.1,515.4C3781.2-831.8,3505.3-751.3,3250.5-816.4z M3541.7-1215c76.6-28.7,139.9-92,180.1-180.1c47.9-103.5,46-191.6-9.6-308.5c-136-291.2-548-329.5-682.1-65.1c-97.7,191.6-3.8,444.5,201.2,538.4C3317.5-1190,3459.3-1182.4,3541.7-1215z"/><path d="M8281.8-820.2c-419.6-118.8-705.1-538.4-634.2-933.1c88.1-486.7,582.5-726.2,1046.1-505.8c509.7,241.4,661,890.9,295.1,1256.9C8816.3-829.8,8519.4-753.2,8281.8-820.2z M8601.7-1220.7c350.6-183.9,191.6-720.4-214.6-724.2c-111.1-1.9-187.8,30.6-264.4,113c-222.2,233.7-17.2,638,325.7,638C8504-1193.9,8573-1205.4,8601.7-1220.7z"/></g></g>
</svg>